# xmcd
#
# Track frame offsets:
#	150
#	17632
#	30370
#	45005
#	60347
#	71725
#	92182
#	109790
#	132840
#	145100
#	166175
#	169247
#	185342
#	202365
#	219417
#	246515
#
# Disc length: 3444 seconds
#
# Revision: 1
# Processed by: cddbd v1.5.2PL0 Copyright (c) Steve Scherf et al.
# Submitted via: audiograbber 1.83.01
#
DISCID=dc0d7210
DTITLE=Rapid Transit - Late Again ? !
DYEAR=1993
DGENRE=Country
TTITLE0=Born Country
TTITLE1=Easy To Love, Hard To Hold
TTITLE2=Small Twon Saturday Night
TTITLE3=She Keeps The Home Fires Burning
TTITLE4=Guitar Town
TTITLE5=How Can I Tell You
TTITLE6=Roll In My Sweet Babies Arms
TTITLE7=Ghostriders
TTITLE8=High Horse
TTITLE9=Your Eyes Tell Lies
TTITLE10=Bluegrass Goes To ...
TTITLE11=Swing Down Sally
TTITLE12=On The Road, On A Train
TTITLE13=My Heroes Have Always Been Cowboys
TTITLE14=My Home's In Alabama
TTITLE15=Want Some More ?
EXTD=
EXTT0=
EXTT1=
EXTT2=
EXTT3=
EXTT4=
EXTT5=
EXTT6=
EXTT7=
EXTT8=
EXTT9=
EXTT10=
EXTT11=
EXTT12=
EXTT13=
EXTT14=
EXTT15=
PLAYORDER=
